<?xml version="1.0" encoding="utf-8"?>
<!-- Svg Vector Icons : http://www.onlinewebfonts.com/icon -->
<!DOCTYPE svg PUBLIC "-//W3C//DTD SVG 1.1//EN" "http://www.w3.org/Graphics/SVG/1.1/DTD/svg11.dtd">
<svg version="1.1" xmlns="http://www.w3.org/2000/svg" xmlns:xlink="http://www.w3.org/1999/xlink" x="0px" y="0px" viewBox="0 0 1000 1000" enable-background="new 0 0 1000 1000" xml:space="preserve">
<metadata> Svg Vector Icons : http://www.onlinewebfonts.com/icon </metadata>
<g><g transform="translate(0.000000,503.000000) scale(0.100000,-0.100000)"><path d="M1864.1,4813.7C975.8,4672,265.6,3956.1,131.6,3062c-42.1-269.9-42.1-5454,0-5724c135.9-901.7,850-1617.6,1745.9-1751.7c155.1-23,503.5-28.7,1992.9-28.7h1807.2l-99.6,111c-338.8,379-604.9,989.7-641.3,1470.2c-5.7,82.3-15.3,187.6-21.1,231.7l-9.6,82.3h-105.3c-130.2,0-176.1,23-210.6,105.3c-32.5,78.5-13.4,139.7,61.3,199.1c40.2,30.6,78.5,40.2,170.4,40.2h118.7l21,130.2c40.2,233.6,116.8,469,243.1,725.5c273.8,559,708.3,991.6,1273.1,1267.3L6673,16.3L5675.6,22l-997.4,5.7l-49.8,49.8c-68.9,68.9-68.9,176.1,0,245l49.8,49.8l1556.4,5.7c853.8,3.8,1583.2,0,1619.6-5.7c78.5-15.3,155.1-88.1,155.1-149.3c0-40.2,11.5-45.9,149.3-68.9c340.8-55.5,798.3-247,1087.4-453.7L9387.6-401v1650.2c0,1387.9-5.7,1678.9-28.7,1830.1c-72.7,449.9-283.3,851.9-610.7,1165.8c-331.2,317.8-700.7,503.5-1141,568.6C7348.8,4853.9,2114.9,4852,1864.1,4813.7z M3646.4,3580.8c72.7-72.8,72.7-149.3,3.8-235.5c-405.8-490.1-1206-1399.4-1246.2-1414.7c-32.5-13.4-68.9-15.3-99.6-3.8c-95.7,34.5-874.9,637.5-899.8,693c-28.7,68.9-7.7,145.5,51.7,193.3c99.5,78.5,143.6,59.4,520.7-224c294.8-220.2,352.2-256.5,373.3-233.5c13.4,15.3,258.4,300.5,543.7,633.6c285.2,333.1,534.1,614.5,553.3,626C3510.4,3651.7,3587,3638.3,3646.4,3580.8z M7961.4,2727c63.2-61.3,63.2-160.8,1.9-233.6l-45.9-53.6l-1608.1-5.7l-1606.2-3.8l-51.7,40.2c-74.7,59.3-93.8,120.6-61.3,197.2c15.3,36.4,42.1,74.7,63.2,86.2c23,13.4,536,19.1,1648.3,21h1613.8L7961.4,2727z M3615.7,1212.8c38.3-15.3,86.1-107.2,86.1-168.5c0-36.4-158.9-235.5-622.2-775.3c-340.8-398.2-635.6-729.4-650.9-737c-101.5-38.3-143.6-15.3-576.2,308.2C1575,48.8,1418,179,1402.7,211.6c-42.1,105.3,40.2,227.8,157,227.8c59.3,0,118.7-36.4,419.2-260.3c191.4-141.7,350.3-256.5,352.2-252.7c40.2,53.6,1060.6,1240.5,1087.4,1265.4C3456.9,1224.2,3556.4,1235.7,3615.7,1212.8z M3659.8-1409.9c46-53.6,53.6-122.5,21.1-183.8c-24.9-47.9-1146.7-1363-1217.5-1426.2c-97.6-91.9-137.8-72.7-603,277.6c-260.3,195.3-436.5,340.8-451.8,373.3c-38.3,82.3,0,181.9,86.1,216.3c36.4,15.3,84.2,23,107.2,15.3c23-5.7,191.4-122.5,371.4-258.4c181.9-135.9,338.8-247,348.4-247c9.6,0,250.8,273.8,537.9,608.8c285.2,333.1,545.6,626,580.1,650.9C3514.3-1327.6,3596.6-1337.2,3659.8-1409.9z"/><path d="M7209-364.7c-825.1-179.9-1481.7-804-1703.8-1621.5c-45.9-172.3-49.8-218.2-49.8-560.9c-1.9-350.3,1.9-384.8,51.7-562.8c141.7-507.3,425-926.5,836.6-1234.8c876.8-656.6,2111.5-566.6,2890.7,208.7c193.3,191.4,314,356.1,428.8,587.7c377.1,752.3,298.6,1650.2-199.1,2322.1c-216.3,291-576.2,580.1-897.8,719.8c-296.7,128.3-472.8,164.6-844.2,172.3C7438.7-328.3,7360.2-332.1,7209-364.7z M8066.6-701.6c886.4-180,1529.6-1016.5,1487.5-1931.6c-17.2-369.5-111-660.5-314-962.9c-478.6-719.8-1382.2-1024.2-2195.8-739c-616.4,214.4-1089.3,752.4-1229,1395.6c-38.3,183.8-44.1,560.9-9.6,727.5c124.4,605,488.2,1085.4,1026.1,1353.5C7212.9-667.1,7634-613.5,8066.6-701.6z"/><path d="M7597.6-1367.8c-97.6-42.1-105.3-86.1-105.3-566.7v-440.3H7052c-497.7,0-536-7.7-574.3-122.5c-17.2-53.6-15.3-76.6,9.6-124.4c15.3-32.5,45.9-67,65.1-78.5c23-11.5,216.3-19.1,488.2-19.1h449.9l5.7-470.9l5.7-470.9l53.6-45.9c74.7-63.2,155.1-59.4,225.9,9.6l55.5,55.5v461.4v461.4h461.4h461.4l55.5,55.5c68.9,70.8,72.8,151.2,9.6,225.9l-45.9,53.6l-470.9,5.7l-470.9,5.8v449.9c0,271.8-7.7,465.2-19.2,488.2c-19.1,34.5-114.9,93.8-147.4,93.8C7662.7-1342.9,7628.2-1354.4,7597.6-1367.8z"/></g></g>
</svg>